<?xml version="1.0" encoding="UTF-8" standalone="no"?>
<svg
   xmlns:svg="http://www.w3.org/2000/svg"
   xmlns="http://www.w3.org/2000/svg"
   version="1.1"
   width="708.76263"
   height="353.51959"
   id="svg3281">
  <defs
     id="defs3283" />
  <g
     transform="translate(-48.475838,-312.74525)"
     id="layer1">
    <path
       d="m 473.49953,616.56069 c -2.98255,0 -5.48741,0.52123 -7.45387,1.60922 -1.96376,1.09017 -3.57686,2.56576 -4.74338,4.4894 -1.1689,1.92337 -1.69406,3.98823 -1.69406,6.18319 0,2.44731 0.73352,4.687 2.20228,6.69168 1.46874,2.00902 4.35745,4.18095 8.63972,6.60657 l 3.21871,1.86374 c 3.25192,1.84233 5.2655,3.46483 6.09863,4.74337 0.80943,1.29725 1.18584,2.70698 1.18584,4.23489 0,2.03341 -0.73961,3.71013 -2.28698,5.16702 -1.54737,1.45446 -3.68189,2.20228 -6.35274,2.20228 -1.47112,0 -3.01781,-0.14636 -4.74337,-0.50822 -1.72352,-0.35941 -4.47403,-1.39861 -8.2162,-3.13415 l 0,6.52228 c 3.25395,0.92374 5.64765,1.47288 7.19976,1.69406 1.55683,0.21955 3.16858,0.33881 4.82808,0.33881 5.37492,0 9.43357,-1.32218 12.19725,-3.98091 2.76132,-2.65439 4.15045,-5.78393 4.15045,-9.40218 0,-2.65656 -0.75488,-4.98081 -2.20228,-7.03049 -1.44944,-2.02826 -4.31683,-4.32894 -8.63972,-6.77625 l -3.38812,-1.86319 c -1.80452,-1.0262 -3.20688,-1.88326 -4.23516,-2.62593 -1.03066,-0.74512 -1.84688,-1.67509 -2.45639,-2.7105 -0.60951,-1.03812 -0.93173,-2.04236 -0.93173,-3.04931 0,-1.46638 0.65559,-2.91515 1.94817,-4.32 1.29494,-1.40431 3.32139,-2.11744 6.01392,-2.11744 1.2831,0 2.60376,0.22226 3.89634,0.50822 1.29494,0.28325 3.64188,1.08989 7.11506,2.45652 l 0,-6.01405 c -3.9946,-1.19018 -7.75541,-1.77863 -11.35021,-1.77863 z m 268.00059,0 c -7.71305,0 -13.50642,2.21502 -17.27944,6.77625 -3.77301,4.55851 -5.6751,10.40127 -5.6751,17.5334 0,4.66585 0.87717,8.92052 2.54109,12.70547 1.66154,3.78765 4.09218,6.71526 7.28447,8.72455 3.18993,2.00658 7.56332,2.96447 13.12898,2.96447 2.00915,0 3.97123,-0.11926 5.84451,-0.33881 1.87363,-0.22226 4.83249,-0.86194 8.89382,-2.03287 l 0,-18.80409 -6.60684,0 0,15.16199 c -1.79977,0.54264 -3.12555,0.81477 -4.06575,0.9316 -0.94257,0.11113 -1.98273,0.16805 -3.04931,0.16805 -4.20398,0 -7.58939,-0.89311 -10.07967,-2.79507 -2.48991,-1.90711 -4.19685,-4.38315 -5.25159,-7.28474 -1.05912,-2.89698 -1.60936,-5.9677 -1.60936,-9.31707 0,-5.40392 1.23973,-10.00499 3.72694,-13.80673 2.48789,-3.79904 6.53027,-5.75982 12.11254,-5.75982 1.56635,0 3.23092,0.22227 4.99749,0.50822 1.76624,0.28569 4.9524,1.2471 9.65615,2.87991 l 0,-6.09862 c -5.10116,-1.41407 -9.90823,-2.11745 -14.56893,-2.11745 z m -692.024282,1.101 0,46.50187 13.721901,0 c 3.921767,0 6.805386,-0.50687 8.639716,-1.43982 1.834005,-0.93079 3.372186,-2.28875 4.489264,-4.15032 1.118081,-1.86157 1.609359,-3.86219 1.609359,-6.01405 0,-1.77836 -0.37676,-3.50495 -1.185844,-5.16675 -0.811117,-1.66398 -1.9685,-3.13687 -3.472827,-4.32 -1.505004,-1.18069 -3.76556,-2.21285 -6.776247,-3.13388 3.439623,-1.29968 5.902464,-3.01868 7.369169,-5.25186 1.469443,-2.22803 2.20228,-4.51461 2.20228,-6.77625 0,-2.78531 -1.113337,-5.18085 -3.30342,-7.19962 -2.189731,-2.02095 -5.894306,-3.04932 -11.180809,-3.04932 l -12.112542,0 z m 36.591737,0 0,46.50187 6.522138,0 0,-19.73569 6.183326,0 13.128981,19.73569 8.13149,0 -15.50066,-21.76856 c 2.23413,-0.91886 4.04271,-2.0505 5.33629,-3.38813 1.29391,-1.34034 2.26463,-2.94251 2.96461,-4.6588 0.69831,-1.71385 1.01644,-3.41008 1.01644,-5.16676 0,-3.00892 -0.97714,-5.71373 -2.96461,-8.04692 -1.98544,-2.32778 -5.5511,-3.4727 -10.75729,-3.4727 l -14.060715,0 z m 40.149265,0 0,46.50187 27.44381,0 0,-4.91251 -20.83697,0 0,-16.85605 16.3477,0 0,-4.91278 -16.3477,0 0,-14.90775 19.48172,0 0,-4.91278 -26.08856,0 z m 33.96594,0 0,46.50187 5.67511,0 0,-37.94699 12.45136,34.81311 6.35273,0 12.79016,-34.72827 0,37.86215 6.18333,0 0,-46.50187 -8.1315,0 -13.29838,35.91412 -12.87487,-35.91412 -9.14794,0 z m 54.46409,0 0,46.50187 27.3591,0 0,-4.91251 -20.75226,0 0,-16.85605 16.3477,0 0,-4.91278 -16.3477,0 0,-14.90775 19.48172,0 0,-4.91278 -26.08856,0 z m 33.88124,0 0,46.50187 6.60684,0 0,-19.73569 6.09862,0 13.21369,19.73569 8.04679,0 -15.41596,-21.76856 c 2.23312,-0.91886 3.957,-2.0505 5.25159,-3.38813 1.29391,-1.34034 2.26495,-2.94251 2.96461,-4.6588 0.69931,-1.71385 1.10114,-3.41008 1.10114,-5.16676 0,-3.00892 -0.97917,-5.71373 -2.96461,-8.04692 -1.98747,-2.32778 -5.63478,-3.4727 -10.842,-3.4727 l -14.06071,0 z m 60.98623,0 0,46.50187 6.60684,0 0,-21.93797 22.10751,0 0,21.93797 6.60684,0 0,-46.50187 -6.60684,0 0,19.65112 -22.10751,0 0,-19.65112 -6.60684,0 z m 46.33259,0 0,46.50187 27.3591,0 0,-4.91251 -20.83696,0 0,-16.85605 16.4324,0 0,-4.91278 -16.4324,0 0,-14.90775 19.56641,0 0,-4.91278 -26.08855,0 z m 33.88124,0 0,46.50187 6.60684,0 0,-46.50187 -6.60684,0 z m 17.61824,0 0,46.50187 5.67511,0 0,-37.94699 12.45135,34.81311 6.26803,0 12.87487,-34.72827 0,37.86215 6.18333,0 0,-46.50187 -8.1315,0 -13.29838,35.91412 -12.87487,-35.91412 -9.14794,0 z m 83.60195,0 0,4.91278 16.51711,0 0,41.58909 6.52214,0 0,-41.58909 16.5171,0 0,-4.91278 -39.55635,0 z m 45.73968,0 0,46.50187 6.60684,0 0,-46.50187 -6.60684,0 z m 17.53354,0 0,46.50187 6.60684,0 0,-21.09094 16.68651,0 0,-4.91278 -16.68651,0 0,-15.58537 19.82052,0 0,-4.91278 -26.42736,0 z m 30.57781,0 0,4.91278 16.51711,0 0,41.58909 6.60684,0 0,-41.58909 16.4324,0 0,-4.91278 -39.55635,0 z m 45.57027,0 0,29.22244 c 0,4.79189 0.60886,8.39604 1.86347,10.75742 1.25664,2.36627 3.12181,4.22865 5.5904,5.59041 2.46859,1.35687 5.74387,2.03287 9.74085,2.03287 3.74456,0 6.71017,-0.63886 8.97853,-1.94803 2.27343,-1.30728 4.00883,-3.11084 5.25159,-5.33643 1.24751,-2.23074 1.94818,-5.79776 1.94818,-10.842 l 0,-29.47668 -5.84452,0 0,29.56125 c 0,3.93754 -0.36694,6.70957 -1.18584,8.38574 -0.81654,1.67346 -1.98509,2.89942 -3.47283,3.64237 -1.48535,0.74268 -3.26412,1.101 -5.421,1.101 -3.41352,0 -6.05764,-0.89067 -7.96209,-2.79506 -1.90412,-1.90413 -2.8799,-5.48416 -2.8799,-10.58803 l 0,-29.30727 -6.60684,0 z m 44.04561,0 0,46.50187 5.75981,0 0,-35.91411 23.29335,35.91411 6.43743,0 0,-46.50187 -5.67511,0 0,35.82955 -23.29335,-35.82955 -6.52213,0 z m -618.417294,4.91278 2.625796,0 c 3.963427,0 6.700354,0.61474 8.300903,1.7789 1.599195,1.16389 2.371687,2.79778 2.371687,4.99735 0,2.51833 -0.824317,4.62303 -2.625796,6.26803 -1.801804,1.64744 -4.677318,2.45625 -8.555013,2.45625 l -2.117577,0 0,-15.50053 z m 36.591737,0 4.150451,0 c 2.966641,0 5.173666,0.32445 6.522136,0.9316 1.34745,0.60688 2.32664,1.46313 2.96461,2.54137 0.63732,1.07823 0.93173,2.28169 0.93173,3.72693 0,2.4278 -0.83686,4.65854 -2.54109,6.69141 -1.70151,2.028 -5.041174,3.04931 -9.91026,3.04931 l -2.117577,0 0,-16.94062 z m 162.545237,0 4.15045,0 c 2.96767,0 5.09032,0.32445 6.43744,0.9316 1.34847,0.60688 2.32796,1.46313 2.96461,2.54137 0.63696,1.07823 0.93173,2.28169 0.93173,3.72693 0,2.4278 -0.8389,4.65854 -2.54109,6.69141 -1.70388,2.028 -4.95647,3.04931 -9.82556,3.04931 l -2.11758,0 0,-16.94062 z m -199.136974,19.65112 1.863468,0 c 3.77166,0 6.917194,1.00668 9.402044,2.87991 2.485175,1.87376 3.726936,4.09583 3.726936,6.77624 0,1.48536 -0.414029,2.88262 -1.185843,4.06575 -0.7742,1.18314 -1.885153,2.02935 -3.303421,2.5411 -1.417916,0.51445 -4.447577,0.76246 -9.147934,0.76246 l -1.35525,0 0,-17.02546 z"
       id="path116"
       style="fill:#18468b;fill-opacity:1;fill-rule:nonzero;stroke:none" />
    <path
       d="m 402.09852,318.49525 c -15.91368,0 -30.40894,6.19548 -41.21875,16.28125 16.27045,0.75115 31.46699,7.4354 43.0625,19.03125 1.10927,1.10859 2.13744,2.26589 3.15625,3.4375 21.3672,1.01135 40.75439,9.74406 55.4375,23.4375 0.0136,-0.5587 0.0312,-1.12473 0.0312,-1.6875 0,-33.35472 -27.11809,-60.5 -60.46875,-60.5 z m -44.3125,20.96875 c -31.03928,0 -56.68496,23.51177 -60.09375,53.65625 11.31904,-8.6885 25.11367,-13.40625 39.625,-13.40625 2.22837,0 4.43729,0.0929 6.625,0.3125 15.58029,-14.26197 35.4577,-22.2582 56.625,-22.8125 l 0,-0.0312 C 389.14082,345.75698 373.94263,339.464 357.78602,339.464 z m 96.40625,0.28125 c 8.25076,10.92873 13.125,24.53131 13.125,39.25 0,2.08776 -0.0885,4.14988 -0.28125,6.1875 14.22097,15.32347 23.01544,35.72992 23.34375,58.15625 11.33598,-11.00022 18.40625,-26.36967 18.40625,-43.375 0,-31.36488 -23.99967,-57.24533 -54.59375,-60.21875 z M 402.91102,363.089 c -21.77445,0 -42.22767,8.47767 -57.625,23.875 -15.39462,15.39801 -23.875,35.87604 -23.875,57.65625 0,44.94685 36.55146,81.53125 81.5,81.53125 44.95566,0 81.53125,-36.5844 81.53125,-81.53125 0,-44.95532 -36.57559,-81.53125 -81.53125,-81.53125 z m -15.15625,12.375 39.125,39.03125 -17,16.65625 -13.8125,-13.6875 7.0625,-7.1875 5.15625,5.0625 -1.59375,1.625 -0.40625,0.4375 0.40625,0.40625 2.8125,2.78125 0.40625,0.40625 0.4375,-0.40625 5.8125,-5.71875 0.4375,-0.40625 -0.40625,-0.4375 -11.1875,-11.15625 -0.40625,-0.40625 -0.4375,0.40625 -25.75,25.78125 -0.4375,0.40625 0.4375,0.4375 11.0625,11.03125 0.40625,0.40625 0.40625,-0.40625 5.8125,-5.8125 0.40625,-0.40625 -0.40625,-0.4375 -2.375,-2.375 -0.40625,-0.40625 -0.4375,0.40625 -1.8125,1.75 -5,-5.21875 7.375,-7.0625 13.25,13.375 -11.3125,11.3125 -0.40625,0.4375 0.40625,0.40625 5.15625,5.15625 0.15625,0.15625 0.125,0 -5.0625,5.375 0,-0.0937 -0.15625,-0.15625 -49.0625,-49.0625 5.125,-5.09375 3.84375,3.84375 0.40625,0.40625 0.4375,-0.40625 11.40625,-11.15625 13.8125,13.6875 -7.0625,7.1875 -5.15625,-5.09375 1.59375,-1.625 0.40625,-0.40625 -0.40625,-0.40625 -2.8125,-2.78125 -0.40625,-0.40625 -0.4375,0.40625 -5.8125,5.6875 -0.4375,0.4375 0.4375,0.40625 10.96875,10.96875 0.40625,0.4375 0.4375,-0.4375 25.75,-25.75 0.4375,-0.40625 -0.4375,-0.4375 -10.875,-10.84375 -0.40625,-0.40625 -0.40625,0.40625 -5.8125,5.78125 -0.40625,0.4375 0.40625,0.40625 2.375,2.375 0.40625,0.4375 0.4375,-0.40625 1.8125,-1.78125 5,5.21875 -7.375,7.09375 -13.28125,-13.375 16.84375,-16.8125 z m -50.4375,9 c -16.15627,0 -31.35717,6.29264 -42.78125,17.71875 -11.42408,11.42577 -17.71875,26.62363 -17.71875,42.78125 0,15.66872 6.00388,29.96349 15.8125,40.71875 0.94054,-18.57098 9.67858,-35.10076 23,-46.40625 1.23294,-20.54897 9.56028,-39.74061 23.78125,-54.75 -0.69965,-0.0237 -1.39139,-0.0625 -2.09375,-0.0625 z m 176,20.65625 c -1.41183,17.92114 -10.09826,33.8111 -23.09375,44.75 -1.28037,21.50916 -10.36907,40.96029 -24.46875,55.53125 0.68101,0.0234 1.37471,0.0312 2.0625,0.0312 33.35811,0 60.5,-27.11843 60.5,-60.46875 0,-14.81525 -5.31166,-28.81066 -15,-39.84375 z M 315.47352,445.839 c -11.20995,10.98531 -18.15625,26.25798 -18.15625,43.15625 0,30.87529 23.24284,56.40426 53.15625,60.03125 -7.96277,-10.81726 -12.6875,-24.16204 -12.6875,-38.59375 0,-2.17382 0.14477,-4.43824 0.4375,-7 -13.88995,-15.26756 -22.44778,-35.44863 -22.75,-57.59375 z m 119.0625,3.90625 c 0.8461,-0.008 1.67238,0.31595 2.40625,0.90625 l 1.59375,1.59375 0.34375,0.34375 0.0312,-0.0312 c 0.0596,0.0593 0.125,0.0937 0.125,0.0937 l 0.15625,0.15625 0.1875,-0.125 c 1.86652,-1.07166 3.99709,-0.9532 5.65625,0.21875 0.081,0.0708 0.17377,0.14421 0.25,0.21875 1.23294,1.23429 2.16861,3.53243 0.75,6 l -0.21875,0.40625 0.3125,0.3125 1.84375,1.84375 c 0.98086,0.9812 1.32119,2.17425 1,3.375 -0.34999,1.3007 -1.45032,2.40238 -2.75,2.75 -1.19736,0.3195 -2.39651,-0.0514 -3.375,-1.03125 l -1.625,-1.59375 -1,-1.03125 0,1.4375 0,23.28125 0,1.4375 0.5625,-0.5625 0,0.46875 0.5,-0.53125 1.625,-1.59375 c 1.05676,-1.05777 2.34708,-1.47601 3.65625,-1.125 0.52109,0.14061 1.00213,0.44413 1.4375,0.78125 0.45706,0.47434 0.80205,1.02843 0.96875,1.65625 0.32119,1.19838 -0.0215,2.39617 -1,3.375 l -1.6875,1.6875 -0.3125,0.3125 0.21875,0.40625 c 1.42098,2.47333 0.48328,4.79458 -0.75,6.03125 -1.23531,1.23463 -3.53141,2.17064 -6,0.75 l -0.40625,-0.25 -0.3125,0.34375 -1.84375,1.8125 c -1.75437,1.75302 -3.86318,1.22989 -5.09375,0 -0.66644,-0.66712 -1.12263,-1.6034 -1.125,-2.59375 0.13552,-0.76741 0.52064,-1.48566 1.15625,-2.125 l 1.625,-1.59375 0.5,-0.53125 -0.4375,0 0.90625,-0.875 -1.4375,0 -23.3125,0 -1.4375,0 1.03125,1 1.625,1.625 c 1.75437,1.75505 1.22921,3.89274 0,5.125 -1.23057,1.23192 -3.36826,1.75505 -5.125,0 l -1.6562,-1.6875 -0.3125,-0.3125 -0.40625,0.21875 c -2.46622,1.4159 -4.76435,0.48463 -6,-0.75 -0.76402,-0.7647 -1.41861,-1.94133 -1.46875,-3.3125 0.0691,-0.76267 0.2711,-1.52359 0.6875,-2.25 l 0.125,-0.1875 -0.15625,-0.1875 c 0.0169,-0.0315 0.0143,-0.0636 0.0312,-0.0937 l 0.25,-0.375 -0.34375,-0.3125 -1.8125,-1.84375 c -0.7071,-0.70541 -1.08468,-1.52424 -1.125,-2.375 0.11892,-0.89616 0.53961,-1.72643 1.15625,-2.34375 1.16145,-1.16213 3.08422,-1.75358 4.8125,-0.625 0.0857,0.0708 0.16902,0.13845 0.25,0.21875 l 1.625,1.625 1.03125,1.03125 0,-1.4375 0,-23.3125 0,-1.4375 -1.03125,1.03125 -1.625,1.625 c -1.76182,1.7564 -3.86081,1.23294 -5.09375,0 -0.65459,-0.65696 -1.11077,-1.58977 -1.125,-2.5625 0.11892,-0.73488 0.49226,-1.46135 1.1875,-2.15625 l 1.65625,-1.6875 0.15625,-0.15625 -0.125,-0.1875 c -0.0169,-0.0315 -0.0123,-0.0612 -0.0312,-0.0937 l 0.25,-0.28125 -0.21875,-0.375 c -0.2619,-0.45096 -0.4147,-0.92649 -0.53125,-1.40625 l 5.40625,-5.75 c 0.78062,0.0603 1.56508,0.29456 2.3125,0.71875 l 0.21875,0.125 0.15625,-0.1875 1.8125,-1.8125 c 0.79079,-0.79257 1.72209,-1.20652 2.6875,-1.21875 0.3218,-0.004 0.64256,0.0378 0.96875,0.125 0.53295,0.14196 1.02829,0.436 1.46875,0.78125 1.18517,1.24141 1.66104,3.30432 -0.0625,5.03125 l -1.625,1.625 -1.03125,1 1.3125,0 -0.3125,0.3125 0.71875,0 23.3125,0 0.71875,0 -0.3125,-0.3125 0.75,0 -1,-1 -1.625,-1.625 c -0.69016,-0.69287 -1.07519,-1.50587 -1.125,-2.34375 0.0203,-0.17449 0.0161,-0.35608 0.0625,-0.53125 0.37608,-1.39862 1.57149,-2.59538 2.96875,-2.96875 0.28689,-0.0767 0.56172,-0.12236 0.84375,-0.125 z m -20.5,14.34375 c -0.46913,-0.004 -0.9602,0.0597 -1.4375,0.1875 -2.02813,0.54278 -3.6736,2.22289 -4.21875,4.25 -0.51161,1.9109 0.0416,3.79327 1.5625,5.3125 l 4.21875,4.21875 -4.21875,4.21875 c -2.62071,2.62613 -1.98476,6.01693 0,8 0.30019,0.29951 0.64323,0.54984 1,0.78125 0.60478,0.48586 1.25969,0.89622 2,1.09375 1.79977,0.48111 3.58859,-0.0278 5.03125,-1.46875 -0.002,0 3.44944,-3.45317 4.40625,-4.40625 l 4,4 c 0.34525,0.34389 0.69828,0.63885 1.0625,0.875 1.32814,1.0449 2.87117,1.41843 4.4375,1 1.89735,-0.50822 3.52202,-2.13322 4.03125,-4.03125 0.13112,-0.48586 0.16811,-0.95977 0.15625,-1.4375 0.12604,-1.46909 -0.32818,-3.04389 -1.6875,-4.40625 l -4.03125,-4 4.0625,-4.03125 c 1.319,-1.31934 1.76806,-2.801 1.65625,-4.15625 0.0596,-1.6019 -0.60948,-3.14446 -1.71875,-4.25 -1.98273,-1.98273 -5.3477,-2.6197 -7.96875,0 l -4.21875,4.25 -4.25,-4.25 c -1.13739,-1.13943 -2.4676,-1.7383 -3.875,-1.75 z m 94.3125,31.9375 c -11.14557,8.86265 -25.21727,14.1875 -40.53125,14.1875 -2.26123,0 -4.48759,-0.11844 -6.6875,-0.34375 -14.56859,13.0043 -33.51416,21.20885 -54.3125,22.125 -0.15958,0.1833 -0.3068,0.35236 -0.46875,0.53125 5.24685,5.05881 11.39363,9.2146 18.1875,12.125 0.0999,0.0417 0.21492,0.0833 0.3125,0.125 0.70236,0.29544 1.40875,0.57168 2.125,0.84375 0.28596,0.10706 0.55576,0.20781 0.84375,0.3125 0.61427,0.22091 1.25159,0.42239 1.875,0.625 0.40251,0.1301 0.78296,0.25438 1.1875,0.375 0.55497,0.16771 1.12575,0.31764 1.6875,0.46875 0.49026,0.13248 0.97578,0.25642 1.46875,0.375 0.50686,0.12299 1.02168,0.26556 1.53125,0.375 0.56175,0.11858 1.12101,0.20781 1.6875,0.3125 0.46417,0.0861 0.93971,0.17343 1.40625,0.25 0.63324,0.1 1.27064,0.1996 1.90625,0.28125 0.41911,0.0532 0.82852,0.11187 1.25,0.15625 0.72336,0.0789 1.45668,0.13397 2.1875,0.1875 0.34288,0.0234 0.686,0.0435 1.03125,0.0625 1.07844,0.0579 2.16173,0.0937 3.25,0.0937 0.31882,0 0.66974,-0.0367 1.03125,-0.0625 0.30019,-0.0207 0.60885,-0.0218 0.9375,-0.0312 l 2.6875,-0.0937 c 28.85428,-2.21075 52.09233,-24.74444 55.40625,-53.28125 z m -165.65625,11.03125 c -0.0786,1.17161 -0.125,2.29385 -0.125,3.375 0,33.35235 27.11809,60.5 60.46875,60.5 15.5708,0 30.47281,-6.07376 41.6875,-16.78125 -17.82763,-0.96629 -34.40261,-9.1526 -46.0625,-22.8125 -21.12902,-1.0205 -40.76929,-9.57747 -55.96875,-24.28125 z"
       id="path152"
       style="fill:#18468b;fill-opacity:1;fill-rule:nonzero;stroke:none" />
    <path
       d="m 402.09852,313.74525 c -18.94639,0 -36.03781,8.12088 -47.96875,21.0625 -33.45298,1.86211 -60.25765,29.05148 -61.53125,62.65625 -0.4784,0.4513 -0.96858,0.87653 -1.4375,1.34375 -12.32125,12.3243 -19.09375,28.72672 -19.09375,46.15625 0,18.70007 7.91531,35.56187 20.5625,47.46875 1.7354,33.35608 28.63994,60.16436 62.03125,61.75 11.94754,13.20453 29.20974,21.5 48.375,21.5 18.39412,0 35.93128,-7.82418 48.3125,-21.5 33.73385,-1.56396 60.84192,-28.87945 62.125,-62.6875 12.08103,-11.84793 19.59375,-28.31466 19.59375,-46.53125 0,-17.42953 -6.79867,-33.83195 -19.125,-46.15625 -0.14738,-0.14976 -0.28774,-0.28876 -0.4375,-0.4375 -0.8284,-34.68456 -28.85922,-62.73121 -63.53125,-63.625 -11.92857,-12.90333 -28.95978,-21 -47.875,-21 z m 0,4.75 c 33.35066,0 60.46875,27.14528 60.46875,60.5 0,0.56277 -0.018,1.1288 -0.0312,1.6875 -14.68311,-13.69344 -34.0703,-22.42615 -55.4375,-23.4375 -1.01881,-1.17161 -2.04698,-2.32891 -3.15625,-3.4375 -11.59556,-11.59585 -26.7921,-18.2801 -43.06255,-19.03125 10.80981,-10.08577 25.30507,-16.28125 41.21875,-16.28125 z m -44.3125,20.96875 c 16.15661,0 31.3548,6.29298 42.78125,17.71875 0.003,0.007 -0.007,0.0245 0,0.0312 -21.1673,0.5543 -41.04471,8.55053 -56.625,22.8125 -2.18771,-0.21955 -4.39663,-0.3125 -6.625,-0.3125 -14.51133,0 -28.30596,4.71775 -39.625,13.40625 3.40879,-30.14448 29.05447,-53.65625 60.09375,-53.65625 z m 96.40625,0.28125 c 30.59408,2.97342 54.59375,28.85387 54.59375,60.21875 0,17.00533 -7.07027,32.37478 -18.40625,43.375 -0.32831,-22.42633 -9.12278,-42.83278 -23.34375,-58.15625 0.19278,-2.03762 0.28125,-4.09974 0.28125,-6.1875 0,-14.71869 -4.87424,-28.32127 -13.125,-39.25 z M 402.91102,363.089 c 44.95566,0 81.53125,36.57593 81.53125,81.53125 0,44.94685 -36.57559,81.53125 -81.53125,81.53125 -44.94854,0 -81.5,-36.5844 -81.5,-81.53125 0,-21.78021 8.48038,-42.25824 23.875,-57.65625 15.39733,-15.39733 35.85055,-23.875 57.625,-23.875 z m -15.15625,12.375 -16.84375,16.8125 13.28125,13.375 7.375,-7.09375 -5,-5.21875 -1.8125,1.78125 -0.4375,0.40625 -0.40625,-0.4375 -2.375,-2.375 -0.40625,-0.40625 0.40625,-0.4375 5.8125,-5.78125 0.40625,-0.40625 0.40625,0.40625 10.875,10.84375 0.4375,0.4375 -0.4375,0.40625 -25.75,25.75 -0.4375,0.4375 -0.40625,-0.4375 -10.96875,-10.96875 -0.4375,-0.40625 0.4375,-0.4375 5.8125,-5.6875 0.4375,-0.40625 0.40625,0.40625 2.8125,2.78125 0.40625,0.40625 -0.40625,0.40625 -1.59375,1.625 5.15625,5.09375 7.0625,-7.1875 -13.8125,-13.6875 -11.40625,11.15625 -0.4375,0.40625 -0.40625,-0.40625 -3.84375,-3.84375 -5.125,5.09375 49.0625,49.0625 0.125,0.15625 0.0312,0.0937 5.0625,-5.375 -0.125,0 -0.1562,-0.1562 -5.15625,-5.15625 -0.40625,-0.40625 0.40625,-0.4375 11.3125,-11.3125 -13.25,-13.375 -7.375,7.0625 5,5.21875 1.8125,-1.75 0.4375,-0.40625 0.40625,0.40625 2.375,2.375 0.40625,0.4375 -0.40625,0.40625 -5.8125,5.8125 -0.40625,0.40625 -0.4375,-0.40625 -11.03125,-11.03125 -0.4375,-0.4375 0.4375,-0.40625 25.75,-25.78125 0.40625,-0.40625 0.4375,0.40625 11.15625,11.15625 0.4375,0.4375 -0.4375,0.40625 -5.8125,5.71875 -0.4375,0.40625 -0.40625,-0.40625 -2.8125,-2.78125 -0.40625,-0.40625 0.40625,-0.4375 1.59375,-1.625 -5.15625,-5.0625 -7.0625,7.1875 13.8125,13.6875 17,-16.65625 -39.125,-39.03125 z m -50.4375,9 c 0.70236,0 1.3941,0.0384 2.09375,0.0625 -14.22097,15.00939 -22.54831,34.20103 -23.78125,54.75 -13.32142,11.30549 -22.05946,27.83527 -23,46.40625 -9.80862,-10.75526 -15.8125,-25.05003 -15.8125,-40.71875 0,-16.15762 6.29467,-31.35548 17.71875,-42.78125 C 305.9601,390.75664 321.161,384.464 337.31727,384.464 z m 176,20.65625 c 9.68834,11.03309 15,25.0285 15,39.84375 0,33.35032 -27.14189,60.46875 -60.5,60.46875 -0.68779,0 -1.38149,-0.008 -2.0625,-0.0312 14.09968,-14.57096 23.18838,-34.02209 24.46875,-55.53125 12.99549,-10.9389 21.68192,-26.82886 23.09375,-44.75 z M 315.47352,445.839 c 0.30222,22.14512 8.86005,42.32619 22.75,57.59375 -0.29273,2.56176 -0.4375,4.82618 -0.4375,7 0,14.43171 4.72473,27.77649 12.6875,38.59375 -29.91341,-3.62699 -53.15625,-29.15596 -53.15625,-60.03125 0,-16.89827 6.9463,-32.17094 18.15625,-43.15625 z m 119.0625,3.90625 c -0.28203,0.003 -0.55686,0.0483 -0.84375,0.125 -1.39726,0.37337 -2.59267,1.57013 -2.96875,2.96875 -0.0454,0.17517 -0.0412,0.35676 -0.0625,0.53125 0.0498,0.83788 0.43484,1.65088 1.125,2.34375 l 1.625,1.625 1,1 -0.75,0 0.3125,0.3125 -0.71875,0 -23.3125,0 -0.71875,0 0.3125,-0.3125 -1.3125,0 1.03125,-1 1.625,-1.625 c 1.72354,-1.72693 1.24767,-3.78984 0.0625,-5.03125 -0.44046,-0.34525 -0.9358,-0.63929 -1.46875,-0.78125 -0.32619,-0.0872 -0.64695,-0.12908 -0.96875,-0.125 -0.96541,0.0122 -1.89671,0.42618 -2.6875,1.21875 l -1.8125,1.8125 -0.1875,0.1875 -0.1875,-0.125 c -0.74742,-0.42419 -1.53188,-0.65844 -2.3125,-0.71875 l -5.40625,5.75 c 0.11655,0.47976 0.26935,0.95529 0.53125,1.40625 l 0.21875,0.375 -0.25,0.28125 c 0.0203,0.0325 0.0157,0.0622 0.0312,0.0937 l 0.125,0.1875 -0.15625,0.15625 -1.6875,1.6875 c -0.69524,0.6949 -1.03733,1.42137 -1.15625,2.15625 0.0136,0.97273 0.43916,1.90554 1.09375,2.5625 1.23294,1.23294 3.36318,1.7564 5.125,0 l 1.625,-1.625 1.03125,-1.03125 0,1.4375 0,23.3125 0,1.4375 -1.03125,-1.03125 -1.625,-1.625 c -0.081,-0.0803 -0.16428,-0.14794 -0.25,-0.21875 -1.72828,-1.12858 -3.65105,-0.53713 -4.8125,0.625 -0.61664,0.61732 -1.03733,1.44759 -1.15625,2.34375 0.0403,0.85076 0.4179,1.66959 1.125,2.375 l 1.8125,1.84375 0.3125,0.3125 -0.21875,0.375 c -0.0169,0.0302 -0.0143,0.0622 -0.0312,0.0937 l 0.15625,0.1875 -0.125,0.1875 c -0.4164,0.72641 -0.61838,1.48733 -0.6875,2.25 0.0501,1.37117 0.70473,2.5478 1.46875,3.3125 1.23565,1.23463 3.53378,2.1659 6,0.75 l 0.40625,-0.21865 0.3125,0.3125 1.65625,1.6875 c 1.75674,1.75505 3.89443,1.23192 5.125,0 1.23057,-1.23226 1.75573,-3.36995 0,-5.125 l -1.625,-1.625 -1.03125,-1 1.4375,0 23.3125,0 1.4375,0 -0.90625,0.875 0.4375,0 -0.5,0.53125 -1.625,1.59375 c -0.63561,0.63934 -1.02073,1.35759 -1.15625,2.125 0.002,0.99035 0.42731,1.92663 1.09375,2.59375 1.23057,1.22989 3.37063,1.75302 5.125,0 l 1.84375,-1.8125 0.3125,-0.34375 0.40625,0.25 c 2.46859,1.42064 4.76469,0.48463 6,-0.75 1.23328,-1.23667 2.17098,-3.55792 0.75,-6.03125 l -0.21875,-0.40625 0.3125,-0.3125 1.6875,-1.6875 c 0.97849,-0.97883 1.32119,-2.17662 1,-3.375 -0.1667,-0.62782 -0.51169,-1.18191 -0.96875,-1.65625 -0.43537,-0.33712 -0.91641,-0.64064 -1.4375,-0.78125 -1.30917,-0.35101 -2.59949,0.0672 -3.65625,1.125 l -1.625,1.59375 -0.5,0.53125 0,-0.46875 -0.5625,0.5625 0,-1.4375 0,-23.28125 0,-1.4375 1,1.03125 1.625,1.59375 c 0.97849,0.97985 2.17764,1.35075 3.375,1.03125 1.29968,-0.34762 2.40001,-1.4493 2.75,-2.75 0.32119,-1.20075 -0.0191,-2.3938 -1,-3.375 l -1.84375,-1.84375 -0.3125,-0.3125 0.21875,-0.40625 c 1.41861,-2.46757 0.48294,-4.76571 -0.75,-6 -0.0762,-0.0745 -0.16902,-0.14794 -0.25,-0.21875 -1.65916,-1.17195 -3.78973,-1.29041 -5.65625,-0.21875 l -0.1875,0.125 -0.15625,-0.15625 c 0,0 -0.0654,-0.0345 -0.125,-0.0937 l -0.0312,0.0312 -0.34375,-0.34375 -1.59375,-1.59375 c -0.73387,-0.5903 -1.56015,-0.91416 -2.40625,-0.90625 z m -20.5,14.34375 c 1.4074,0.0117 2.73761,0.61057 3.875,1.75 l 4.25,4.25 4.21875,-4.25 c 2.62105,-2.6197 5.98602,-1.98273 7.96875,0 1.10927,1.10554 1.77838,2.6481 1.71875,4.25 0.11181,1.35525 -0.33725,2.83691 -1.65625,4.15625 l -4.0625,4.03125 4.03125,4 c 1.35932,1.36236 1.81354,2.93716 1.6875,4.40625 0.0102,0.47773 -0.0248,0.95164 -0.15625,1.4375 -0.50923,1.89803 -2.1339,3.52303 -4.03125,4.03125 -1.56633,0.41843 -3.10936,0.0449 -4.4375,-1 -0.36422,-0.23615 -0.71725,-0.53111 -1.0625,-0.875 l -4,-4 c -0.95681,0.95308 -4.40862,4.40625 -4.40625,4.40625 -1.44266,1.44097 -3.23148,1.94986 -5.03125,1.46875 -0.74031,-0.19753 -1.39522,-0.60789 -2,-1.09375 -0.35677,-0.23141 -0.69981,-0.48174 -1,-0.78125 -1.9851,-1.98307 -2.62105,-5.37387 0,-8 l 4.21875,-4.21875 -4.21875,-4.21875 c -1.52093,-1.51923 -2.07411,-3.4016 -1.5625,-5.3125 0.54515,-2.02711 2.19062,-3.70722 4.21875,-4.25 0.4773,-0.12782 0.96837,-0.1914 1.4375,-0.1875 z m 94.3125,31.9375 c -3.31392,28.53681 -26.55197,51.0705 -55.40625,53.28125 l -2.6875,0.0937 c -0.32865,0.009 -0.63731,0.0106 -0.9375,0.0312 -0.36151,0.0258 -0.71243,0.0625 -1.03125,0.0625 -1.08827,0 -2.17156,-0.0358 -3.25,-0.0937 -0.34525,-0.019 -0.68837,-0.0391 -1.03125,-0.0625 -0.73082,-0.0535 -1.46414,-0.10856 -2.1875,-0.1875 -0.42148,-0.0444 -0.83089,-0.10306 -1.25,-0.15625 -0.63561,-0.0816 -1.27301,-0.1813 -1.90625,-0.28125 -0.46654,-0.0766 -0.94208,-0.16394 -1.40625,-0.25 -0.56649,-0.10469 -1.12575,-0.19392 -1.6875,-0.3125 -0.50957,-0.10944 -1.02439,-0.25201 -1.53125,-0.375 -0.49297,-0.11858 -0.97849,-0.24252 -1.46875,-0.375 -0.56175,-0.15111 -1.13253,-0.30104 -1.6875,-0.46875 -0.40454,-0.12062 -0.78499,-0.2449 -1.1875,-0.375 -0.62341,-0.20261 -1.26073,-0.40409 -1.875,-0.625 -0.28799,-0.10469 -0.55779,-0.20544 -0.84375,-0.3125 -0.71625,-0.27207 -1.42264,-0.54831 -2.125,-0.84375 -0.0976,-0.0417 -0.21255,-0.0833 -0.3125,-0.125 -6.79387,-2.9104 -12.94065,-7.06619 -18.1875,-12.125 0.16195,-0.17889 0.30917,-0.34795 0.46875,-0.53125 20.79834,-0.91615 39.74391,-9.1207 54.3125,-22.125 2.19991,0.22531 4.42627,0.34375 6.6875,0.34375 15.31398,0 29.38568,-5.32485 40.53125,-14.1875 z m -165.65625,11.03125 c 15.19946,14.70378 34.83973,23.26075 55.96875,24.28125 11.65989,13.6599 28.23487,21.84621 46.0625,22.8125 -11.21469,10.70749 -26.1167,16.78125 -41.6875,16.78125 -33.35066,0 -60.46875,-27.14765 -60.46875,-60.5 0,-1.08115 0.0464,-2.20339 0.125,-3.375 z"
       id="path156"
       style="fill:#ffffff;fill-opacity:1;fill-rule:nonzero;stroke:none" />
  </g>
</svg>
