<?xml version="1.0"?>
<svg xmlns:rdf="http://www.w3.org/1999/02/22-rdf-syntax-ns#" xmlns="http://www.w3.org/2000/svg" xmlns:cc="http://creativecommons.org/ns#" xmlns:dc="http://purl.org/dc/elements/1.1/" id="svg1825" viewBox="0 0 439.49 443.88">
  <g id="g1835">
    <g id="g1837">
      <path id="path1839" d="m219.74 443.88c121.36 0 219.75-99.37 219.75-221.94s-98.39-221.94-219.75-221.94c-121.35 0-219.74 99.368-219.74 221.94s98.387 221.94 219.74 221.94z"/>
      <path id="path1841" d="m219.74 221.94"/>
    </g>
    <g id="g1843" fill="#fff">
      <path id="path1845" d="m219.74 392.71c93.39 0 169.09-76.45 169.09-170.77s-75.7-170.77-169.09-170.77c-93.38-0.004-169.08 76.45-169.08 170.77-0.001 94.32 75.7 170.77 169.08 170.77z"/>
      <path id="path1847" d="m219.74 221.94"/>
    </g>
    <g id="g1849">
      <path id="path1851" d="m196.96 300.27l49.53-0.1v-38.48c0-10.44 4.87-20.3 17.89-28.84s49.36-25.86 49.36-71.41-38.16-76.858-70.25-83.5c-32.07-6.642-66.83-2.272-91.5 24.75-22.08 24.2-26.74 43.34-26.74 85.57h49.49v-9.82c0-22.5 2.61-46.25 34.75-52.75 17.55-3.55 34 1.96 43.75 11.5 11.16 10.91 11.25 35.5-6.53 47.74l-27.89 18.98c-16.28 10.44-21.86 22.06-21.86 39.14v57.22z"/>
      <g id="g1853">
        <path id="path1855" d="m196.64 370.69v-51h50.21v51h-50.21z"/>
        <path id="path1857" d="m221.74 345.19"/>
      </g>
    </g>
  </g>
  <metadata>
    <rdf:RDF>
      <cc:Work>
        <dc:format>image/svg+xml</dc:format>
        <dc:type rdf:resource="http://purl.org/dc/dcmitype/StillImage"/>
        <cc:license rdf:resource="http://creativecommons.org/licenses/publicdomain/"/>
        <dc:publisher>
          <cc:Agent rdf:about="http://openclipart.org/">
            <dc:title>Openclipart</dc:title>
          </cc:Agent>
        </dc:publisher>
      </cc:Work>
      <cc:License rdf:about="http://creativecommons.org/licenses/publicdomain/">
        <cc:permits rdf:resource="http://creativecommons.org/ns#Reproduction"/>
        <cc:permits rdf:resource="http://creativecommons.org/ns#Distribution"/>
        <cc:permits rdf:resource="http://creativecommons.org/ns#DerivativeWorks"/>
      </cc:License>
    </rdf:RDF>
  </metadata>
</svg>
