<?xml version="1.0" encoding="UTF-8" standalone="no"?>
<svg
   xmlns:dc="http://purl.org/dc/elements/1.1/"
   xmlns:cc="http://creativecommons.org/ns#"
   xmlns:rdf="http://www.w3.org/1999/02/22-rdf-syntax-ns#"
   xmlns:svg="http://www.w3.org/2000/svg"
   xmlns="http://www.w3.org/2000/svg"
   xmlns:xlink="http://www.w3.org/1999/xlink"
   xmlns:sodipodi="http://sodipodi.sourceforge.net/DTD/sodipodi-0.dtd"
   xmlns:inkscape="http://www.inkscape.org/namespaces/inkscape"
   viewBox="0 0 512 512"
   id="svg2"
   version="1.1"
   inkscape:version="0.48.4 r9939"
   width="100%"
   height="100%"
   sodipodi:docname="internet.svg">
  <metadata
     id="metadata137">
    <rdf:RDF>
      <cc:Work
         rdf:about="">
        <dc:format>image/svg+xml</dc:format>
        <dc:type
           rdf:resource="http://purl.org/dc/dcmitype/StillImage" />
      </cc:Work>
    </rdf:RDF>
  </metadata>
  <sodipodi:namedview
     pagecolor="#ffffff"
     bordercolor="#666666"
     borderopacity="1"
     objecttolerance="10"
     gridtolerance="10"
     guidetolerance="10"
     inkscape:pageopacity="0"
     inkscape:pageshadow="2"
     inkscape:window-width="1600"
     inkscape:window-height="838"
     id="namedview135"
     showgrid="false"
     inkscape:zoom="0.921875"
     inkscape:cx="128"
     inkscape:cy="287.74245"
     inkscape:window-x="-8"
     inkscape:window-y="-8"
     inkscape:window-maximized="1"
     inkscape:current-layer="svg2" />
  <defs
     id="defs4">
    <linearGradient
       xlink:href="#linearGradient6001"
       id="linearGradient6015"
       y1="28.337999"
       x1="-22.823"
       y2="22.662001"
       gradientUnits="userSpaceOnUse"
       x2="-22.114" />
    <linearGradient
       xlink:href="#linearGradient6001"
       id="linearGradient6011"
       y1="30.056999"
       x1="-25.176001"
       y2="22.662001"
       gradientUnits="userSpaceOnUse"
       x2="-22.114" />
    <linearGradient
       xlink:href="#linearGradient6001"
       id="linearGradient6007"
       y1="30.056999"
       x1="-25.176001"
       y2="21.042"
       x2="-22.252001"
       gradientUnits="userSpaceOnUse" />
    <linearGradient
       xlink:href="#linearGradient6001"
       id="linearGradient6019"
       y1="15.649"
       x1="-21.659"
       y2="21.336"
       gradientUnits="userSpaceOnUse"
       x2="-21.962" />
    <linearGradient
       id="linearGradient6001">
      <stop
         offset="0"
         stop-color="#fff"
         id="stop11" />
      <stop
         offset="1"
         stop-color="#fff"
         stop-opacity="0"
         id="stop13" />
    </linearGradient>
    <radialGradient
       cx="15.601"
       cy="12.142"
       gradientTransform="matrix(5.82173,0,0,5.82186,-15.83236,-221.71013)"
       id="radialGradient4132"
       r="43.527"
       gradientUnits="userSpaceOnUse">
      <stop
         offset="0"
         stop-color="#fff"
         id="stop16" />
      <stop
         offset="1"
         stop-color="#fff"
         stop-opacity=".165"
         id="stop18" />
    </radialGradient>
    <radialGradient
       cx="18.247999"
       cy="15.716"
       gradientTransform="matrix(5.82173,0,0,5.82186,-15.83236,-221.71013)"
       id="radialGradient3968"
       r="29.993"
       gradientUnits="userSpaceOnUse">
      <stop
         offset="0"
         stop-color="#d3e9ff"
         id="stop21" />
      <stop
         offset=".155"
         stop-color="#d3e9ff"
         id="stop23" />
      <stop
         offset=".75"
         stop-color="#4074ae"
         id="stop25" />
      <stop
         offset="1"
         stop-color="#36486c"
         id="stop27" />
    </radialGradient>
    <radialGradient
       cx="12.071"
       cy="12.493"
       id="radialGradient5983"
       r="6.7179999"
       gradientUnits="userSpaceOnUse">
      <stop
         offset="0"
         stop-color="#fff"
         id="stop30" />
      <stop
         offset="1"
         stop-color="#fff"
         stop-opacity="0"
         id="stop32" />
    </radialGradient>
    <radialGradient
       cx="15.116"
       cy="63.965"
       gradientTransform="scale(1.64399,0.60828)"
       id="radialGradient4120"
       r="12.289"
       gradientUnits="userSpaceOnUse">
      <stop
         offset="0"
         id="stop35" />
      <stop
         offset="1"
         stop-opacity="0"
         id="stop37" />
    </radialGradient>
    <radialGradient
       inkscape:collect="always"
       xlink:href="#radialGradient5983"
       id="radialGradient3114"
       gradientUnits="userSpaceOnUse"
       cx="12.071"
       cy="12.493"
       r="6.7179999" />
    <radialGradient
       inkscape:collect="always"
       xlink:href="#radialGradient5983"
       id="radialGradient3116"
       gradientUnits="userSpaceOnUse"
       cx="12.071"
       cy="12.493"
       r="6.7179999" />
    <radialGradient
       inkscape:collect="always"
       xlink:href="#radialGradient5983"
       id="radialGradient3118"
       gradientUnits="userSpaceOnUse"
       cx="12.071"
       cy="12.493"
       r="6.7179999" />
    <radialGradient
       inkscape:collect="always"
       xlink:href="#radialGradient5983"
       id="radialGradient3120"
       gradientUnits="userSpaceOnUse"
       cx="12.071"
       cy="12.493"
       r="6.7179999" />
  </defs>
  <g
     transform="matrix(2,0,0,2,1.1484542,404.88729)"
     id="g39">
    <path
       d="m 45.0528,38.9086 a 20.2031,7.4751 0 1 1 -40.4061,0 20.2031,7.4751 0 1 1 40.4061,0 z"
       transform="matrix(5.82179,0,0,7.23791,-15.83236,-281.51397)"
       id="path41"
       inkscape:connector-curvature="0"
       style="fill:url(#radialGradient4120)" />
    <path
       d="m 240.0928,-84.9824 c 0,62.3498 -50.5454,112.8946 -112.8866,112.8946 -62.3469,0 -112.8895,-50.5454 -112.8895,-112.8946 0,-62.3469 50.5426,-112.8866 112.8895,-112.8866 62.3412,0 112.8866,50.5397 112.8866,112.8866 z"
       id="path43"
       inkscape:connector-curvature="0"
       style="fill:url(#radialGradient3968);stroke:#39396c;stroke-width:5.82200003" />
  </g>
  <g
     id="g45"
     style="fill:#204a87;fill-opacity:0.71300001"
     transform="matrix(2,0,0,2,1.1484542,-11.112703)">
    <g
       transform="matrix(5.71916,0,0,5.71916,-15.12747,-12.35415)"
       id="g47">
      <path
         d="m 44.0713,20.7144 c 0,0.2627 0,0 0,0 l -0.5449,0.6172 c -0.334,-0.3936 -0.709,-0.7246 -1.0898,-1.0703 l -0.8359,0.123 -0.7637,-0.8633 v 1.0684 l 0.6543,0.4951 0.4355,0.4932 0.582,-0.6582 c 0.1465,0.2744 0.291,0.5488 0.4365,0.8232 v 0.8223 l -0.6553,0.7402 -1.1992,0.8232 -0.9082,0.9063 -0.582,-0.6602 0.291,-0.7402 -0.5811,-0.6582 -0.9814,-2.0977 -0.8359,-0.9453 -0.2188,0.2461 0.3281,1.1934 0.6172,0.6992 c 0.3525,1.0176 0.7012,1.9902 1.1641,2.9629 0.7178,0 1.3945,-0.0762 2.1074,-0.166 v 0.5762 l -0.8721,2.1392 -0.7998,0.9043 -0.6543,1.4004 c 0,0.7676 0,1.5352 0,2.3027 l 0.2188,0.9063 -0.3633,0.4102 -0.8008,0.4941 -0.8359,0.6992 0.6914,0.7813 -0.9453,0.8242 0.1816,0.5332 -1.418,1.6055 h -0.9443 l -0.7998,0.4941 H 33.6396 V 38.2814 L 33.4228,36.963 c -0.2813,-0.8262 -0.5742,-1.6465 -0.8721,-2.4668 0,-0.6055 0.0361,-1.2051 0.0723,-1.8105 l 0.3643,-0.8223 -0.5098,-0.9883 0.0371,-1.3574 -0.6914,-0.7813 0.3457,-1.1309 -0.5625,-0.6382 H 30.624 l -0.3271,-0.3701 -0.9814,0.6177 -0.3994,-0.4536 -0.9092,0.7817 c -0.6172,-0.6997 -1.2354,-1.3989 -1.8535,-2.0981 l -0.7266,-1.7285 0.6543,-0.9863 -0.3633,-0.4111 0.7988,-1.8936 c 0.6563,-0.8164 1.3418,-1.5996 2.0352,-2.3857 l 1.2363,-0.3291 1.3809,-0.1641 0.9453,0.2471 1.3447,1.3564 0.4727,-0.5342 0.6533,-0.082 1.2363,0.4111 h 0.9453 l 0.6543,-0.5762 0.291,-0.4111 -0.6553,-0.4111 -1.0908,-0.082 c -0.3027,-0.4199 -0.584,-0.8613 -0.9434,-1.2344 l -0.3643,0.1641 -0.1455,1.0703 -0.6543,-0.7402 -0.1445,-0.8242 -0.7266,-0.5742 h -0.292 l 0.7275,0.8223 -0.291,0.7402 -0.5811,0.1641 0.3633,-0.7402 -0.6553,-0.3281 -0.5801,-0.6582 -1.0918,0.2461 -0.1445,0.3281 -0.6543,0.4121 -0.3633,0.9053 -0.9082,0.4521 -0.4004,-0.4521 h -0.4355 v -1.4814 l 0.9453,-0.4941 h 0.7266 l -0.1465,-0.5752 -0.5801,-0.5762 0.9805,-0.2061 0.5449,-0.6162 0.4355,-0.7412 h 0.8008 l -0.2188,-0.5752 0.5098,-0.3291 v 0.6582 l 1.0898,0.2461 1.0898,-0.9043 0.0732,-0.4121 0.9443,-0.6577 c -0.3418,0.0425 -0.6836,0.0737 -1.0176,0.1646 V 9.9766 L 34.2213,9.1538 H 33.858 l -0.7984,0.7402 -0.2188,0.4116 0.2188,0.5767 -0.3643,0.9863 -0.5811,-0.3291 -0.5078,-0.5752 -0.8008,0.5752 -0.291,-1.3159 1.3809,-0.9048 V 8.8247 l 0.873,-0.5757 1.3809,-0.3296 0.9453,0.3296 1.7441,0.3291 -0.4355,0.4932 H 35.458 l 0.9453,0.9873 0.7266,-0.8223 0.2207,-0.3618 c 0,0 2.7871,2.498 4.3799,5.2305 1.5928,2.7334 2.3408,5.9551 2.3408,6.6094 z"
         id="path49"
         inkscape:connector-curvature="0" />
    </g>
    <g
       transform="matrix(5.71916,0,0,5.71916,-15.12747,-12.35415)"
       id="g51">
      <path
         d="m 26.0703,9.2363 -0.0732,0.4932 0.5098,0.3291 0.8711,-0.5757 -0.4355,-0.4937 -0.582,0.3296 -0.29,-0.0825"
         id="path53"
         inkscape:connector-curvature="0" />
    </g>
    <g
       transform="matrix(5.71916,0,0,5.71916,-15.12747,-12.35415)"
       id="g55">
      <path
         d="m 26.8701,5.8633 -1.8906,-0.7407 -2.1797,0.2466 -2.6904,0.7402 -0.5088,0.4941 1.6719,1.1514 0,0.6582 -0.6543,0.6582 0.873,1.729 0.5801,-0.3301 0.7285,-1.1514 c 1.123,-0.3472 2.1299,-0.7407 3.1973,-1.2344 l 0.873,-2.2212"
         id="path57"
         inkscape:connector-curvature="0" />
    </g>
    <g
       transform="matrix(5.71916,0,0,5.71916,-15.12747,-12.35415)"
       id="g59">
      <path
         d="m 28.833,12.7749 -0.291,-0.7412 -0.5098,0.165 0.1465,0.9043 0.6543,-0.3281"
         id="path61"
         inkscape:connector-curvature="0" />
    </g>
    <g
       transform="matrix(5.71916,0,0,5.71916,-15.12747,-12.35415)"
       id="g63">
      <path
         d="m 29.123,12.6089 -0.1455,0.9883 0.7998,-0.165 0.5811,-0.5752 -0.5088,-0.4941 C 29.6787,11.9078 29.4824,11.483 29.2685,11.0465 H 28.833 v 0.4932 l 0.29,0.3291 v 0.7402"
         id="path65"
         inkscape:connector-curvature="0" />
    </g>
    <g
       transform="matrix(5.71916,0,0,5.71916,-15.12747,-12.35415)"
       id="g67">
      <path
         d="m 18.3652,28.2422 -0.582,-1.1523 -1.0903,-0.2466 -0.5815,-1.5625 -1.4536,0.1641 -1.2354,-0.9043 -1.3091,1.1514 0,0.1816 c -0.396,-0.1143 -0.8828,-0.1299 -1.2354,-0.3467 l -0.291,-0.8223 v -0.9053 l -0.8721,0.082 c 0.0728,-0.5762 0.145,-1.1514 0.2183,-1.7275 H 9.4238 L 8.9155,22.812 8.4062,23.0581 7.6791,22.6479 7.6063,21.7426 7.7518,20.7553 8.8426,19.933 h 0.8721 l 0.145,-0.4941 1.0903,0.2461 0.7998,0.9883 0.1455,-1.6465 1.3813,-1.1514 0.5088,-1.2344 1.0176,-0.4111 0.5815,-0.8223 1.3081,-0.248 0.6548,-0.9863 c -0.6543,0 -1.3086,0 -1.9629,0 l 1.2358,-0.5762 h 0.8716 l 1.2363,-0.4121 0.1455,-0.4922 -0.4365,-0.4121 -0.5088,-0.165 0.1455,-0.4932 -0.3633,-0.7402 -0.8726,0.3281 0.1455,-0.6577 -1.0176,-0.5762 -0.7993,1.3979 0.0723,0.4941 -0.7993,0.3301 -0.5093,1.0693 -0.2178,-0.9873 -1.3813,-0.5762 -0.2183,-0.7402 1.8174,-1.0703 0.7998,-0.7402 0.0728,-0.9048 -0.436,-0.2471 -0.5815,-0.0825 -0.3633,0.9053 c 0,0 -0.6079,0.1191 -0.7642,0.1577 -1.9961,1.8394 -6.0293,5.8101 -6.9663,13.3062 0.0371,0.1738 0.6792,1.1816 0.6792,1.1816 l 1.5264,0.9043 1.5264,0.4121 0.6548,0.8232 1.0171,0.7402 0.5815,-0.082 0.436,0.1963 v 0.1328 l -0.5811,1.563 -0.4365,0.6582 0.1455,0.3301 -0.3633,1.2324 1.3086,2.3867 1.3081,1.1523 0.582,0.8223 -0.0732,1.7285 0.4365,0.9863 -0.4365,1.8926 c 0,0 -0.0342,-0.0117 0.0215,0.1777 0.0562,0.1895 2.3291,1.4512 2.4736,1.3438 0.144,-0.1094 0.2671,-0.2051 0.2671,-0.2051 l -0.145,-0.4102 0.5811,-0.5762 0.2183,-0.5762 0.9453,-0.3301 0.7266,-1.8105 -0.2178,-0.4922 0.5078,-0.7402 1.0908,-0.248 0.582,-1.3164 -0.1455,-1.6445 0.8721,-1.2344 0.1455,-1.2344 C 20.7331,29.4607 19.5495,28.8513 18.365,28.242"
         id="path69"
         inkscape:connector-curvature="0" />
    </g>
    <g
       transform="matrix(5.71916,0,0,5.71916,-15.12747,-12.35415)"
       id="g71">
      <path
         d="m 16.7656,9.5649 0.7266,0.4937 0.582,0 0,-0.5757 -0.7266,-0.3291 -0.582,0.4111"
         id="path73"
         inkscape:connector-curvature="0" />
    </g>
    <g
       transform="matrix(5.71916,0,0,5.71916,-15.12747,-12.35415)"
       id="g75">
      <path
         d="m 14.876,8.9072 -0.3638,0.9048 0.7271,0 0.3638,-0.8228 C 15.9166,8.7675 16.2286,8.5444 16.5479,8.331 l 0.7271,0.2471 c 0.4844,0.3291 0.9688,0.6582 1.4536,0.9868 L 19.4561,8.9072 18.6558,8.5781 18.292,7.8374 16.9111,7.6728 16.8383,7.2612 16.184,7.4262 15.8936,8.002 15.5298,7.2613 l -0.145,0.3291 0.0728,0.8228 -0.5816,0.494"
         id="path77"
         inkscape:connector-curvature="0" />
    </g>
    <g
       transform="matrix(5.71916,0,0,5.71916,-15.12747,-12.35415)"
       id="g79">
      <g
         id="g81"
         style="opacity:0.75" />
    </g>
    <g
       transform="matrix(5.71916,0,0,5.71916,-15.12747,-12.35415)"
       id="g83">
      <g
         id="g85"
         style="opacity:0.75" />
    </g>
    <g
       transform="matrix(5.71916,0,0,5.71916,-15.12747,-12.35415)"
       id="g87">
      <path
         d="M 17.4922,6.8496 17.856,6.521 18.5831,6.3564 c 0.498,-0.2422 0.998,-0.4053 1.5264,-0.5762 l -0.29,-0.4937 -0.9385,0.1348 -0.4434,0.4419 -0.731,0.106 -0.6499,0.3052 -0.3159,0.1528 -0.1929,0.2583 0.9443,0.1641"
         id="path89"
         inkscape:connector-curvature="0" />
    </g>
    <g
       transform="matrix(5.71916,0,0,5.71916,-15.12747,-12.35415)"
       id="g91">
      <path
         d="m 18.7285,14.6665 0.4365,-0.6582 -0.6548,-0.4932 0.2183,1.1514"
         id="path93"
         inkscape:connector-curvature="0" />
    </g>
  </g>
  <g
     transform="matrix(2,0,0,2,1.1484542,404.88729)"
     id="g95"
     style="fill:none">
    <path
       d="m 234.3597,-84.9822 c 0,59.1833 -47.9784,107.1612 -107.1536,107.1612 -59.1806,0 -107.1563,-47.9784 -107.1563,-107.1612 0,-59.1806 47.9757,-107.1536 107.1563,-107.1536 59.1752,0 107.1536,47.973 107.1536,107.1536 z"
       id="path97"
       inkscape:connector-curvature="0"
       style="opacity:0.39599998;stroke:url(#radialGradient4132);stroke-width:5.82200003" />
    <g
       id="g99"
       style="color:#000000;stroke-width:0.88200003;stroke-linecap:round;stroke-linejoin:round">
      <path
         d="m -2.8284,21.0416 a 15.73315,9.4576301 0 1 1 -31.4663,0 15.73315,9.4576301 0 1 1 31.4663,0 z"
         transform="matrix(6.58465,3.56932,-2.77441,5.1182,299.07183,-128.30323)"
         id="path101"
         inkscape:connector-curvature="0"
         style="stroke:url(#linearGradient6007)" />
      <path
         d="m -2.8284,21.0416 a 15.73315,9.4576301 0 1 1 -31.4663,0 15.73315,9.4576301 0 1 1 31.4663,0 z"
         transform="matrix(5.46856,-5.11786,3.97807,4.25067,172.29343,-247.62621)"
         id="path103"
         inkscape:connector-curvature="0"
         style="stroke:url(#linearGradient6011)" />
    </g>
  </g>
  <g
     transform="matrix(-12.17654,8.93356,8.93356,12.17654,384.18769,-296.36817)"
     id="g105"
     style="color:#000000;fill-rule:evenodd">
    <path
       d="m 18.7888,12.4931 a 6.7175,6.7175 0 1 1 -13.435,0 6.7175,6.7175 0 1 1 13.435,0 z"
       transform="translate(14.95026,22.93047)"
       id="path107"
       inkscape:connector-curvature="0"
       style="fill:url(#radialGradient3114)" />
    <path
       d="m 18.7888,12.4931 a 6.7175,6.7175 0 1 1 -13.435,0 6.7175,6.7175 0 1 1 13.435,0 z"
       transform="matrix(0.30827,0,0,0.30827,23.30035,31.57234)"
       id="path109"
       inkscape:connector-curvature="0"
       style="fill:#ffffff" />
  </g>
  <g
     transform="matrix(2,0,0,2,1.1484542,404.88729)"
     id="g111"
     style="color:#000000;fill:none;stroke-linecap:round;stroke-linejoin:round">
    <path
       d="m -2.8284,21.0416 a 15.73315,9.4576301 0 1 1 -31.4663,0 15.73315,9.4576301 0 1 1 31.4663,0 z"
       transform="matrix(-7.45374,-0.73447,0.5709,-5.79373,-29.83451,14.21149)"
       id="path113"
       inkscape:connector-curvature="0"
       style="stroke:url(#linearGradient6015);stroke-width:0.88200003" />
    <path
       d="m -2.8284,21.0416 a 15.73315,9.4576301 0 1 1 -31.4663,0 15.73315,9.4576301 0 1 1 31.4663,0 z"
       transform="matrix(5.34367,-5.00082,3.88722,4.15346,145.04226,-261.93331)"
       id="path115"
       inkscape:connector-curvature="0"
       style="stroke:url(#linearGradient6019);stroke-width:0.90200001" />
  </g>
  <g
     transform="matrix(-9.38794,6.88764,6.88764,9.38794,113.69701,-248.45765)"
     id="g117"
     style="color:#000000;fill-rule:evenodd">
    <path
       d="m 18.7888,12.4931 a 6.7175,6.7175 0 1 1 -13.435,0 6.7175,6.7175 0 1 1 13.435,0 z"
       transform="translate(14.95026,22.93047)"
       id="path119"
       inkscape:connector-curvature="0"
       style="fill:url(#radialGradient3116)" />
    <path
       d="m 18.7888,12.4931 a 6.7175,6.7175 0 1 1 -13.435,0 6.7175,6.7175 0 1 1 13.435,0 z"
       transform="matrix(0.30827,0,0,0.30827,23.30035,31.57234)"
       id="path121"
       inkscape:connector-curvature="0"
       style="fill:#ffffff" />
  </g>
  <g
     transform="matrix(-9.38794,6.88764,6.88764,9.38794,126.66167,-405.30857)"
     id="g123"
     style="color:#000000;fill-rule:evenodd">
    <path
       d="m 18.7888,12.4931 a 6.7175,6.7175 0 1 1 -13.435,0 6.7175,6.7175 0 1 1 13.435,0 z"
       transform="translate(14.95026,22.93047)"
       id="path125"
       inkscape:connector-curvature="0"
       style="fill:url(#radialGradient3118)" />
    <path
       d="m 18.7888,12.4931 a 6.7175,6.7175 0 1 1 -13.435,0 6.7175,6.7175 0 1 1 13.435,0 z"
       transform="matrix(0.30827,0,0,0.30827,23.30035,31.57234)"
       id="path127"
       inkscape:connector-curvature="0"
       style="fill:#ffffff" />
  </g>
  <g
     transform="matrix(-10.13256,7.43526,7.43394,10.13436,262.96071,-449.70041)"
     id="g129"
     style="color:#000000;fill-rule:evenodd">
    <path
       d="m 18.7888,12.4931 a 6.7175,6.7175 0 1 1 -13.435,0 6.7175,6.7175 0 1 1 13.435,0 z"
       transform="translate(14.95026,22.93047)"
       id="path131"
       inkscape:connector-curvature="0"
       style="fill:url(#radialGradient3120)" />
    <path
       d="m 18.7888,12.4931 a 6.7175,6.7175 0 1 1 -13.435,0 6.7175,6.7175 0 1 1 13.435,0 z"
       transform="matrix(0.30827,0,0,0.30827,23.30035,31.57234)"
       id="path133"
       inkscape:connector-curvature="0"
       style="fill:#ffffff" />
  </g>
</svg>
