<?xml version="1.0" encoding="UTF-8" standalone="no"?>
<svg
   xmlns:dc="http://purl.org/dc/elements/1.1/"
   xmlns:cc="http://creativecommons.org/ns#"
   xmlns:rdf="http://www.w3.org/1999/02/22-rdf-syntax-ns#"
   xmlns:svg="http://www.w3.org/2000/svg"
   xmlns="http://www.w3.org/2000/svg"
   xmlns:sodipodi="http://sodipodi.sourceforge.net/DTD/sodipodi-0.dtd"
   xmlns:inkscape="http://www.inkscape.org/namespaces/inkscape"
   viewBox="0 0 400 400"
   id="svg2"
   version="1.1"
   inkscape:version="0.48.4 r9939"
   width="100%"
   height="100%"
   sodipodi:docname="kalender.svg">
  <metadata
     id="metadata30">
    <rdf:RDF>
      <cc:Work
         rdf:about="">
        <dc:format>image/svg+xml</dc:format>
        <dc:type
           rdf:resource="http://purl.org/dc/dcmitype/StillImage" />
      </cc:Work>
    </rdf:RDF>
  </metadata>
  <sodipodi:namedview
     pagecolor="#ffffff"
     bordercolor="#666666"
     borderopacity="1"
     objecttolerance="10"
     gridtolerance="10"
     guidetolerance="10"
     inkscape:pageopacity="0"
     inkscape:pageshadow="2"
     inkscape:window-width="1600"
     inkscape:window-height="838"
     id="namedview28"
     showgrid="false"
     inkscape:zoom="1.18"
     inkscape:cx="100"
     inkscape:cy="201.69492"
     inkscape:window-x="-8"
     inkscape:window-y="-8"
     inkscape:window-maximized="1"
     inkscape:current-layer="svg2" />
  <defs
     id="defs4" />
  <g
     transform="matrix(2.0279037,0,0,1.9886104,-8.2487214,-22.545972)"
     id="g6"
     style="fill-rule:evenodd">
    <path
       d="m 34.3588,34.9126 154.5178,0 0,173.8863 -154.5178,0 0,-173.8863 z"
       id="path8"
       inkscape:connector-curvature="0"
       style="fill:#ffffff" />
    <path
       d="m 34.3588,34.9126 -26.334,-18.7095 0,173.8462 26.334,18.7497 0,-173.8863 z"
       id="path10"
       inkscape:connector-curvature="0"
       style="fill:#808080" />
    <path
       d="m 8.0249,16.2031 154.5178,0 25.998,18.7095 -154.1818,0 -26.334,-18.7095 z"
       id="path12"
       inkscape:connector-curvature="0"
       style="fill:#bfbfbf" />
    <path
       d="m 33.2668,38.1647 0,5.38 0.252,14.6143 0.63,21.5601 1.176,26.1371 1.932,28.3855 2.898,28.3454 3.99,25.9364 5.334,21.2389 7.644,0.9636 17.388,-0.1606 23.772,-0.9636 26.88,-1.5257 26.67,-1.6863 23.142,-1.606 16.338,-1.1643 6.174,-0.4416 -0.504,-4.9785 -1.302,-13.5303 -1.764,-19.9943 -1.974,-24.5312 -1.89,-26.9401 -1.512,-27.3416 -0.84,-25.6955 0.168,-22.0018 -154.6018,0 z"
       id="path14"
       inkscape:connector-curvature="0"
       style="fill:#808080" />
    <path
       d="m 34.4008,34.9528 0,5.38 0.252,14.6143 0.63,21.5601 1.176,26.1371 1.932,28.3855 2.898,28.3453 3.99,25.9364 5.334,21.2389 7.644,0.9636 17.346,-0.1606 23.73,-1.0037 26.88,-1.4855 26.628,-1.7264 23.1,-1.5658 16.296,-1.2045 6.174,-0.4416 -0.504,-4.9785 -1.26,-13.4901 -1.806,-20.0345 -1.932,-24.491 -1.89,-26.9401 -1.512,-27.3416 -0.84,-25.6955 0.126,-22.0018 -154.3918,0 z"
       id="path16"
       inkscape:connector-curvature="0"
       style="fill:#ffffff;stroke:#000000;stroke-width:0.041;stroke-linecap:round;stroke-linejoin:round" />
    <g
       id="g18"
       style="fill:#808080">
      <path
         d="m 62.0368,53.4616 -0.042,-0.6825 -0.126,-0.6825 -0.21,-0.6424 -0.294,-0.6424 -0.336,-0.6022 -0.462,-0.5621 -0.462,-0.4818 -0.546,-0.4416 -0.588,-0.4015 -0.672,-0.3212 -0.672,-0.2409 -0.672,-0.1606 -0.756,-0.1204 -0.714,0 -0.714,0.0401 -0.714,0.1606 -0.672,0.2007 -0.672,0.281 -0.63,0.3613 -0.546,0.4015 -0.546,0.4818 -0.462,0.5219 -0.378,0.6022 -0.294,0.6022 -0.252,0.6424 -0.168,0.6825 -0.084,0.6424 0,0.6825 0.084,0.6825 0.168,0.6825 0.252,0.6424 0.294,0.6022 0.42,0.6022 0.462,0.5219 0.504,0.4818 0.588,0.4015 0.588,0.3613 0.672,0.281 0.714,0.2007 0.672,0.1204 0.756,0.0803 0.714,-0.0401 0.714,-0.0803 0.714,-0.2007 0.672,-0.2409 0.63,-0.3212 0.588,-0.3613 0.546,-0.4416 0.504,-0.5219 0.42,-0.5621 0.336,-0.6022 0.294,-0.6022 0.21,-0.6825 0.126,-0.6424 0.042,-0.6825 z"
         id="path20"
         inkscape:connector-curvature="0" />
      <path
         d="m 175.3946,53.4616 -0.042,0.6825 -0.126,0.6825 -0.21,0.6825 -0.294,0.6022 -0.336,0.6424 -0.462,0.5219 -0.462,0.5219 -0.588,0.4416 -0.588,0.4015 -0.672,0.3212 -0.672,0.2007 -0.714,0.1606 -0.714,0.1204 -0.714,0 -0.756,-0.0803 -0.672,-0.1606 -0.714,-0.2409 -0.63,-0.3212 -0.63,-0.4015 -0.546,-0.4416 -0.504,-0.4818 -0.42,-0.5621 -0.378,-0.6022 -0.294,-0.6424 -0.21,-0.6825 -0.126,-0.6825 -0.042,-0.6825 0.042,-0.6825 0.126,-0.6825 0.21,-0.6825 0.294,-0.6424 0.378,-0.6022 0.42,-0.5621 0.504,-0.4818 0.546,-0.4818 0.63,-0.3613 0.63,-0.3212 0.672,-0.2409 0.714,-0.1606 0.714,-0.0803 0.756,0 0.714,0.0803 0.714,0.1606 0.672,0.2409 0.63,0.3212 0.63,0.3613 0.546,0.4416 0.504,0.5219 0.462,0.5621 0.336,0.6022 0.294,0.6424 0.21,0.6424 0.126,0.6825 0.042,0.7227 z"
         id="path22"
         inkscape:connector-curvature="0" />
      <path
         d="m 33.0988,78.7556 3.486,130.6857 1.722,1.1242 -3.654,-127.9154 -1.554,-3.8945 z"
         id="path24"
         inkscape:connector-curvature="0" />
      <path
         d="m 32.7208,80.0403 7.854,130.485 1.68,1.1242 -7.35,-127.7549 -2.184,-3.8543 z"
         id="path26"
         inkscape:connector-curvature="0" />
    </g>
  </g>
</svg>
